<?xml version="1.0" encoding="UTF-8"?>
<svg id="Layer_2" data-name="Layer 2" xmlns="http://www.w3.org/2000/svg" width="6741.12" height="4768.08" viewBox="0 0 6741.12 4768.08">
  <polygon id="_20" data-name="20" points="3959.11 2191.03 4009.22 2245.22 4067.77 2191.29 4017.42 2136.76 3959.11 2191.03" fill="#fff"/>
  <polygon id="_21" data-name="21" points="3900.19 2245.22 3950.32 2299.68 4009.22 2245.22 3959.11 2191.03 3900.19 2245.22" fill="#fff"/>
  <polygon id="_22" data-name="22" points="3841.03 2299.55 3891.16 2354 3950.07 2299.55 3899.96 2245.35 3841.03 2299.55" fill="#fff"/>
  <polygon id="_17" data-name="17" points="3791.02 2245.22 3841.15 2299.68 3900.05 2245.22 3849.94 2191.03 3791.02 2245.22" fill="#fff"/>
  <polygon id="_23" data-name="23" points="3782.9 2354.22 3833.01 2408.41 3891.57 2354.48 3841.21 2299.96 3782.9 2354.22" fill="#fff"/>
  <polygon id="_24" data-name="24" points="3723.98 2408.41 3774.11 2462.87 3833.01 2408.41 3782.9 2354.22 3723.98 2408.41" fill="#fff"/>
  <polygon id="_25" data-name="25" points="3664.82 2462.74 3714.95 2517.19 3773.86 2462.74 3723.75 2408.54 3664.82 2462.74" fill="#fff"/>
  <polygon id="_26" data-name="26" points="3606.79 2516.81 3656.9 2571 3715.45 2517.07 3665.09 2462.55 3606.79 2516.81" fill="#fff"/>
  <polygon id="_27" data-name="27" points="3547.86 2571 3597.99 2625.46 3656.9 2571 3606.79 2516.81 3547.86 2571" fill="#fff"/>
  <polygon id="_28" data-name="28" points="3488.71 2625.33 3538.84 2679.78 3597.74 2625.33 3547.63 2571.13 3488.71 2625.33" fill="#fff"/>
  <polygon id="_36" data-name="36" points="3989.88 2342.78 4040.01 2397.24 4098.91 2342.78 4048.8 2288.59 3989.88 2342.78" fill="#fff"/>
  <polygon id="_35" data-name="35" points="3930.72 2397.11 3980.85 2451.56 4039.76 2397.11 3989.65 2342.91 3930.72 2397.11" fill="#fff"/>
  <polygon id="_34" data-name="34" points="3872.59 2451.78 3922.7 2505.97 3981.26 2452.04 3930.9 2397.52 3872.59 2451.78" fill="#fff"/>
  <polygon id="_33" data-name="33" points="3813.67 2505.97 3863.8 2560.43 3922.7 2505.97 3872.59 2451.78 3813.67 2505.97" fill="#fff"/>
  <polygon id="_32" data-name="32" points="3754.51 2560.3 3804.64 2614.75 3863.55 2560.3 3813.44 2506.1 3754.51 2560.3" fill="#fff"/>
  <polygon id="_31" data-name="31" points="3696.48 2614.37 3746.59 2668.56 3805.14 2614.63 3754.78 2560.11 3696.48 2614.37" fill="#fff"/>
  <polygon id="_30" data-name="30" points="3637.55 2668.56 3687.68 2723.02 3746.59 2668.56 3696.48 2614.37 3637.55 2668.56" fill="#fff"/>
  <polygon id="_29" data-name="29" points="3578.4 2722.89 3628.53 2777.34 3687.43 2722.89 3637.32 2668.69 3578.4 2722.89" fill="#fff"/>
  <polygon id="_37" data-name="37" points="4040.18 2397.11 4090.31 2451.56 4149.22 2397.11 4099.11 2342.91 4040.18 2397.11" fill="#fff"/>
  <polygon id="_38" data-name="38" points="3981.03 2451.43 4031.16 2505.89 4090.06 2451.43 4039.95 2397.24 3981.03 2451.43" fill="#fff"/>
  <polygon id="_39" data-name="39" points="3922.9 2506.1 3973.01 2560.3 4031.56 2506.37 3981.21 2451.84 3922.9 2506.1" fill="#fff"/>
  <polygon id="_40" data-name="40" points="3863.98 2560.3 3914.11 2614.75 3973.01 2560.3 3922.9 2506.1 3863.98 2560.3" fill="#fff"/>
  <polygon id="_41" data-name="41" points="3804.82 2614.62 3854.95 2669.08 3913.85 2614.62 3863.74 2560.43 3804.82 2614.62" fill="#fff"/>
  <polygon id="_42" data-name="42" points="3746.78 2668.69 3796.89 2722.89 3855.45 2668.96 3805.09 2614.43 3746.78 2668.69" fill="#fff"/>
  <polygon id="_43" data-name="43" points="3687.86 2722.89 3737.99 2777.34 3796.89 2722.89 3746.78 2668.69 3687.86 2722.89" fill="#fff"/>
  <polygon id="_44" data-name="44" points="3628.71 2777.21 3678.84 2831.67 3737.74 2777.21 3687.63 2723.02 3628.71 2777.21" fill="#fff"/>
  <polygon id="_51" data-name="51" points="4070.92 2548.73 4121.05 2603.18 4179.95 2548.73 4129.84 2494.53 4070.92 2548.73" fill="#fff"/>
  <polygon id="_50" data-name="50" points="4012.79 2603.4 4062.9 2657.59 4121.45 2603.66 4071.1 2549.14 4012.79 2603.4" fill="#fff"/>
  <polygon id="_49" data-name="49" points="3953.87 2657.59 4004 2712.05 4062.9 2657.59 4012.79 2603.4 3953.87 2657.59" fill="#fff"/>
  <polygon id="_48" data-name="48" points="3894.71 2711.92 3944.84 2766.37 4003.75 2711.92 3953.64 2657.72 3894.71 2711.92" fill="#fff"/>
  <polygon id="_47" data-name="47" points="3836.68 2765.99 3886.79 2820.18 3945.34 2766.25 3894.98 2711.73 3836.68 2765.99" fill="#fff"/>
  <polygon id="_46" data-name="46" points="3777.75 2820.18 3827.88 2874.64 3886.79 2820.18 3836.68 2765.99 3777.75 2820.18" fill="#fff"/>
  <polygon id="_45" data-name="45" points="3718.6 2874.51 3768.73 2928.96 3827.63 2874.51 3777.52 2820.31 3718.6 2874.51" fill="#fff"/>
  <polygon id="_52" data-name="52" points="4121.21 2603.33 4171.35 2657.78 4230.25 2603.33 4180.14 2549.13 4121.21 2603.33" fill="#fff"/>
  <polygon id="_53" data-name="53" points="4063.08 2658 4113.19 2712.19 4171.75 2658.26 4121.39 2603.74 4063.08 2658" fill="#fff"/>
  <polygon id="_54" data-name="54" points="4004.16 2712.19 4054.29 2766.65 4113.19 2712.19 4063.08 2658 4004.16 2712.19" fill="#fff"/>
  <polygon id="_55" data-name="55" points="3945.01 2766.52 3995.14 2820.98 4054.04 2766.52 4003.93 2712.32 3945.01 2766.52" fill="#fff"/>
  <polygon id="_56" data-name="56" points="3886.97 2820.59 3937.08 2874.78 3995.63 2820.85 3945.28 2766.33 3886.97 2820.59" fill="#fff"/>
  <polygon id="_57" data-name="57" points="3828.05 2874.78 3878.18 2929.24 3937.08 2874.78 3886.97 2820.59 3828.05 2874.78" fill="#fff"/>
  <polygon id="_58" data-name="58" points="3768.89 2929.11 3819.02 2983.56 3877.92 2929.11 3827.81 2874.91 3768.89 2929.11" fill="#fff"/>
  <polygon id="_65" data-name="65" points="4201.32 2689.7 4251.45 2744.16 4310.36 2689.7 4260.24 2635.51 4201.32 2689.7" fill="#fff"/>
  <polygon id="_64" data-name="64" points="4143.19 2744.37 4193.3 2798.57 4251.85 2744.64 4201.5 2690.11 4143.19 2744.37" fill="#fff"/>
  <polygon id="_63" data-name="63" points="4084.27 2798.57 4134.4 2853.02 4193.3 2798.57 4143.19 2744.37 4084.27 2798.57" fill="#fff"/>
  <polygon id="_62" data-name="62" points="4025.11 2852.89 4075.24 2907.35 4134.15 2852.89 4084.04 2798.7 4025.11 2852.89" fill="#fff"/>
  <polygon id="_61" data-name="61" points="3967.08 2906.96 4017.19 2961.16 4075.74 2907.23 4025.38 2852.7 3967.08 2906.96" fill="#fff"/>
  <polygon id="_60" data-name="60" points="3908.15 2961.16 3958.28 3015.61 4017.19 2961.16 3967.08 2906.96 3908.15 2961.16" fill="#fff"/>
  <polygon id="_59" data-name="59" points="3849 3015.48 3899.13 3069.94 3958.03 3015.48 3907.92 2961.29 3849 3015.48" fill="#fff"/>
  <polygon id="_69" data-name="69" points="4251.56 2744.33 4301.69 2798.79 4360.59 2744.33 4310.48 2690.14 4251.56 2744.33" fill="#fff"/>
  <polygon id="_70" data-name="70" points="4193.43 2799 4243.54 2853.2 4302.09 2799.27 4251.73 2744.74 4193.43 2799" fill="#fff"/>
  <polygon id="_71" data-name="71" points="4134.5 2853.2 4184.63 2907.65 4243.54 2853.2 4193.43 2799 4134.5 2853.2" fill="#fff"/>
  <polygon id="_72" data-name="72" points="4075.35 2907.52 4125.48 2961.98 4184.38 2907.52 4134.27 2853.33 4075.35 2907.52" fill="#fff"/>
  <polygon id="_73" data-name="73" points="4017.31 2961.59 4067.42 3015.79 4125.97 2961.86 4075.62 2907.33 4017.31 2961.59" fill="#fff"/>
  <polygon id="_74" data-name="74" points="3958.39 3015.79 4008.52 3070.24 4067.42 3015.79 4017.31 2961.59 3958.39 3015.79" fill="#fff"/>
  <polygon id="_75" data-name="75" points="3899.23 3070.11 3949.36 3124.57 4008.27 3070.11 3958.16 3015.92 3899.23 3070.11" fill="#fff"/>
  <polygon id="_68" data-name="68" points="4310.93 2689.7 4361.06 2744.16 4419.97 2689.7 4369.86 2635.51 4310.93 2689.7" fill="#fff"/>
  <polygon id="_82" data-name="82" points="4331.56 2830.9 4381.69 2885.35 4440.59 2830.9 4390.48 2776.7 4331.56 2830.9" fill="#fff"/>
  <polygon id="_81" data-name="81" points="4273.43 2885.57 4323.54 2939.77 4382.09 2885.84 4331.73 2831.31 4273.43 2885.57" fill="#fff"/>
  <polygon id="_80" data-name="80" points="4214.5 2939.77 4264.63 2994.22 4323.54 2939.77 4273.43 2885.57 4214.5 2939.77" fill="#fff"/>
  <polygon id="_79" data-name="79" points="4155.35 2994.09 4205.48 3048.55 4264.38 2994.09 4214.27 2939.9 4155.35 2994.09" fill="#fff"/>
  <polygon id="_78" data-name="78" points="4097.31 3048.16 4147.42 3102.36 4205.98 3048.43 4155.62 2993.9 4097.31 3048.16" fill="#fff"/>
  <polygon id="_77" data-name="77" points="4038.39 3102.36 4088.52 3156.81 4147.42 3102.36 4097.31 3048.16 4038.39 3102.36" fill="#fff"/>
  <polygon id="_76" data-name="76" points="3979.23 3156.68 4029.36 3211.14 4088.27 3156.68 4038.16 3102.49 3979.23 3156.68" fill="#fff"/>
  <polygon id="_83" data-name="83" points="4390.93 2776.27 4441.06 2830.72 4499.97 2776.27 4449.86 2722.07 4390.93 2776.27" fill="#fff"/>
  <polygon id="_86" data-name="86" points="4381.77 2885.51 4431.9 2939.96 4490.8 2885.51 4440.69 2831.31 4381.77 2885.51" fill="#fff"/>
  <polygon id="_87" data-name="87" points="4323.64 2940.18 4373.75 2994.38 4432.3 2940.45 4381.95 2885.92 4323.64 2940.18" fill="#fff"/>
  <polygon id="_88" data-name="88" points="4264.72 2994.38 4314.85 3048.83 4373.75 2994.38 4323.64 2940.18 4264.72 2994.38" fill="#fff"/>
  <polygon id="_89" data-name="89" points="4205.56 3048.7 4255.69 3103.16 4314.6 3048.7 4264.49 2994.51 4205.56 3048.7" fill="#fff"/>
  <polygon id="_90" data-name="90" points="4147.52 3102.77 4197.64 3156.97 4256.19 3103.04 4205.83 3048.51 4147.52 3102.77" fill="#fff"/>
  <polygon id="_91" data-name="91" points="4088.6 3156.97 4138.73 3211.42 4197.64 3156.97 4147.52 3102.77 4088.6 3156.97" fill="#fff"/>
  <polygon id="_92" data-name="92" points="4029.45 3211.29 4079.58 3265.75 4138.48 3211.29 4088.37 3157.1 4029.45 3211.29" fill="#fff"/>
  <polygon id="_85" data-name="85" points="4441.15 2830.88 4491.28 2885.33 4550.18 2830.88 4500.07 2776.68 4441.15 2830.88" fill="#fff"/>
  <polygon id="_99" data-name="99" points="4461.69 2971.95 4511.82 3026.4 4570.73 2971.95 4520.62 2917.75 4461.69 2971.95" fill="#fff"/>
  <polygon id="_98" data-name="98" points="4403.56 3026.62 4453.67 3080.81 4512.23 3026.88 4461.87 2972.36 4403.56 3026.62" fill="#fff"/>
  <polygon id="_97" data-name="97" points="4344.64 3080.81 4394.77 3135.27 4453.67 3080.81 4403.56 3026.62 4344.64 3080.81" fill="#fff"/>
  <polygon id="_96" data-name="96" points="4285.49 3135.14 4335.62 3189.59 4394.52 3135.14 4344.41 3080.94 4285.49 3135.14" fill="#fff"/>
  <polygon id="_95" data-name="95" points="4227.45 3189.21 4277.56 3243.4 4336.11 3189.47 4285.76 3134.95 4227.45 3189.21" fill="#fff"/>
  <polygon id="_94" data-name="94" points="4168.53 3243.4 4218.66 3297.86 4277.56 3243.4 4227.45 3189.21 4168.53 3243.4" fill="#fff"/>
  <polygon id="_93" data-name="93" points="4109.37 3297.73 4159.5 3352.18 4218.4 3297.73 4168.29 3243.53 4109.37 3297.73" fill="#fff"/>
  <polygon id="_101" data-name="101" points="4453.88 3081.17 4503.99 3135.37 4562.54 3081.44 4512.19 3026.91 4453.88 3081.17" fill="#fff"/>
  <polygon id="_102" data-name="102" points="4394.96 3135.37 4445.09 3189.82 4503.99 3135.37 4453.88 3081.17 4394.96 3135.37" fill="#fff"/>
  <polygon id="_103" data-name="103" points="4335.8 3189.69 4385.93 3244.15 4444.84 3189.69 4394.72 3135.5 4335.8 3189.69" fill="#fff"/>
  <polygon id="_104" data-name="104" points="4277.76 3243.76 4327.87 3297.96 4386.43 3244.03 4336.07 3189.5 4277.76 3243.76" fill="#fff"/>
  <polygon id="_105" data-name="105" points="4218.84 3297.96 4268.97 3352.41 4327.87 3297.96 4277.76 3243.76 4218.84 3297.96" fill="#fff"/>
  <polygon id="_106" data-name="106" points="4159.69 3352.28 4209.82 3406.74 4268.72 3352.28 4218.61 3298.09 4159.69 3352.28" fill="#fff"/>
  <polygon id="_108" data-name="108" points="4298.72 3384.4 4348.85 3438.86 4407.76 3384.4 4357.65 3330.21 4298.72 3384.4" fill="#fff"/>
  <polygon id="_107" data-name="107" points="4239.57 3438.73 4289.7 3493.18 4348.6 3438.73 4298.49 3384.53 4239.57 3438.73" fill="#fff"/>
  <polygon id="_112" data-name="112" points="4534.13 3167.27 4584.26 3221.72 4643.17 3167.27 4593.05 3113.07 4534.13 3167.27" fill="#fff"/>
  <polygon id="_111" data-name="111" points="4474.98 3221.59 4525.11 3276.05 4584.01 3221.59 4533.9 3167.4 4474.98 3221.59" fill="#fff"/>
  <polygon id="_113" data-name="113" points="4525.63 3276.15 4575.76 3330.61 4634.66 3276.15 4584.55 3221.96 4525.63 3276.15" fill="#fff"/>
  <polygon id="_114" data-name="114" points="4466.48 3330.48 4516.61 3384.93 4575.51 3330.48 4525.4 3276.28 4466.48 3330.48" fill="#fff"/>
  <polygon id="_116" data-name="116" points="4348.6 3438.73 4398.73 3493.18 4457.63 3438.73 4407.52 3384.53 4348.6 3438.73" fill="#fff"/>
  <polygon id="_118" data-name="118" points="4532.88 3429.43 4583.01 3483.89 4641.91 3429.43 4591.8 3375.23 4532.88 3429.43" fill="#fff"/>
  <polygon id="_182" data-name="182" points="3386.76 2719.23 3436.89 2773.68 3495.79 2719.23 3445.68 2665.03 3386.76 2719.23" fill="#fff"/>
  <polygon id="_183" data-name="183" points="3327.6 2773.55 3377.73 2828.01 3436.64 2773.55 3386.52 2719.36 3327.6 2773.55" fill="#fff"/>
  <polygon id="_184" data-name="184" points="3269.47 2828.22 3319.58 2882.42 3378.13 2828.49 3327.78 2773.96 3269.47 2828.22" fill="#fff"/>
  <polygon id="_185" data-name="185" points="3210.55 2882.42 3260.68 2936.87 3319.58 2882.42 3269.47 2828.22 3210.55 2882.42" fill="#fff"/>
  <polygon id="_186" data-name="186" points="3151.39 2936.74 3201.52 2991.2 3260.43 2936.74 3210.32 2882.55 3151.39 2936.74" fill="#fff"/>
  <polygon id="_187" data-name="187" points="3093.36 2990.81 3143.47 3045.01 3202.02 2991.08 3151.66 2936.55 3093.36 2990.81" fill="#fff"/>
  <polygon id="_188" data-name="188" points="3034.43 3045.01 3084.56 3099.46 3143.47 3045.01 3093.36 2990.81 3034.43 3045.01" fill="#fff"/>
  <polygon id="_189" data-name="189" points="2975.28 3099.33 3025.41 3153.79 3084.31 3099.33 3034.2 3045.14 2975.28 3099.33" fill="#fff"/>
  <polygon id="_191" data-name="191" points="2984.12 2990.43 3034.25 3044.88 3093.15 2990.43 3043.04 2936.23 2984.12 2990.43" fill="#fff"/>
  <polygon id="_190" data-name="190" points="2924.96 3044.75 2975.09 3099.21 3034 3044.75 2983.89 2990.56 2924.96 3044.75" fill="#fff"/>
  <polygon id="_181" data-name="181" points="3476.48 2816.75 3526.61 2871.2 3585.51 2816.75 3535.4 2762.55 3476.48 2816.75" fill="#fff"/>
  <polygon id="_180" data-name="180" points="3417.32 2871.07 3467.45 2925.53 3526.36 2871.07 3476.25 2816.88 3417.32 2871.07" fill="#fff"/>
  <polygon id="_179" data-name="179" points="3359.19 2925.74 3409.3 2979.94 3467.86 2926.01 3417.5 2871.48 3359.19 2925.74" fill="#fff"/>
  <polygon id="_178" data-name="178" points="3300.27 2979.94 3350.4 3034.39 3409.3 2979.94 3359.19 2925.74 3300.27 2979.94" fill="#fff"/>
  <polygon id="_177" data-name="177" points="3241.11 3034.26 3291.24 3088.72 3350.15 3034.26 3300.04 2980.07 3241.11 3034.26" fill="#fff"/>
  <polygon id="_176" data-name="176" points="3183.08 3088.33 3233.19 3142.53 3291.74 3088.6 3241.38 3034.07 3183.08 3088.33" fill="#fff"/>
  <polygon id="_166" data-name="166" points="3527.31 2870.84 3577.44 2925.29 3636.35 2870.84 3586.24 2816.64 3527.31 2870.84" fill="#fff"/>
  <polygon id="_167" data-name="167" points="3468.16 2925.16 3518.29 2979.62 3577.19 2925.16 3527.08 2870.96 3468.16 2925.16" fill="#fff"/>
  <polygon id="_168" data-name="168" points="3410.03 2979.83 3460.14 3034.03 3518.69 2980.1 3468.33 2925.57 3410.03 2979.83" fill="#fff"/>
  <polygon id="_169" data-name="169" points="3351.1 3034.03 3401.23 3088.48 3460.14 3034.03 3410.03 2979.83 3351.1 3034.03" fill="#fff"/>
  <polygon id="_170" data-name="170" points="3291.95 3088.35 3342.08 3142.81 3400.98 3088.35 3350.87 3034.16 3291.95 3088.35" fill="#fff"/>
  <polygon id="_174" data-name="174" points="3065.18 3196.51 3115.31 3250.97 3174.22 3196.51 3124.11 3142.31 3065.18 3196.51" fill="#fff"/>
  <polygon id="_173" data-name="173" points="3116.02 3250.6 3166.15 3305.05 3225.05 3250.6 3174.94 3196.4 3116.02 3250.6" fill="#fff"/>
  <polygon id="_162" data-name="162" points="3440.53 3130.88 3490.66 3185.34 3549.56 3130.88 3499.45 3076.69 3440.53 3130.88" fill="#fff"/>
  <polygon id="_161" data-name="161" points="3381.37 3185.21 3431.5 3239.66 3490.4 3185.21 3440.29 3131.01 3381.37 3185.21" fill="#fff"/>
  <polygon id="_160" data-name="160" points="3323.24 3239.88 3373.35 3294.08 3431.9 3240.15 3381.55 3185.62 3323.24 3239.88" fill="#fff"/>
  <polygon id="_159" data-name="159" points="3264.32 3294.08 3314.45 3348.53 3373.35 3294.08 3323.24 3239.88 3264.32 3294.08" fill="#fff"/>
  <polygon id="_158" data-name="158" points="3205.16 3348.4 3255.29 3402.86 3314.2 3348.4 3264.09 3294.21 3205.16 3348.4" fill="#fff"/>
  <polygon id="_153" data-name="153" points="3490.64 3185.32 3540.77 3239.77 3599.67 3185.32 3549.56 3131.12 3490.64 3185.32" fill="#fff"/>
  <polygon id="_154" data-name="154" points="3431.48 3239.64 3481.61 3294.1 3540.52 3239.64 3490.41 3185.45 3431.48 3239.64" fill="#fff"/>
  <polygon id="_155" data-name="155" points="3373.35 3294.31 3423.46 3348.51 3482.02 3294.58 3431.66 3240.05 3373.35 3294.31" fill="#fff"/>
  <polygon id="_156" data-name="156" points="3314.43 3348.51 3364.56 3402.96 3423.46 3348.51 3373.35 3294.31 3314.43 3348.51" fill="#fff"/>
  <polygon id="_146" data-name="146" points="3570.94 3271.67 3621.07 3326.12 3679.98 3271.67 3629.87 3217.47 3570.94 3271.67" fill="#fff"/>
  <polygon id="_145" data-name="145" points="3511.79 3325.99 3561.92 3380.45 3620.82 3325.99 3570.71 3271.8 3511.79 3325.99" fill="#fff"/>
  <polygon id="_144" data-name="144" points="3453.66 3380.67 3503.77 3434.86 3562.32 3380.93 3511.97 3326.4 3453.66 3380.67" fill="#fff"/>
  <polygon id="_143" data-name="143" points="3394.74 3434.86 3444.87 3489.32 3503.77 3434.86 3453.66 3380.67 3394.74 3434.86" fill="#fff"/>
  <polygon id="_142" data-name="142" points="3335.58 3489.19 3385.71 3543.64 3444.61 3489.19 3394.5 3434.99 3335.58 3489.19" fill="#fff"/>
  <polygon id="_138" data-name="138" points="3621.07 3326.25 3671.2 3380.71 3730.11 3326.25 3680 3272.06 3621.07 3326.25" fill="#fff"/>
  <polygon id="_139" data-name="139" points="3561.92 3380.58 3612.05 3435.03 3670.95 3380.58 3620.84 3326.38 3561.92 3380.58" fill="#fff"/>
  <polygon id="_140" data-name="140" points="3503.79 3435.25 3553.9 3489.45 3612.45 3435.52 3562.1 3380.99 3503.79 3435.25" fill="#fff"/>
  <polygon id="_141" data-name="141" points="3444.87 3489.45 3495 3543.9 3553.9 3489.45 3503.79 3435.25 3444.87 3489.45" fill="#fff"/>
  <polygon id="_131" data-name="131" points="3701.55 3413.15 3751.68 3467.6 3810.58 3413.15 3760.47 3358.95 3701.55 3413.15" fill="#fff"/>
  <polygon id="_130" data-name="130" points="3642.39 3467.47 3692.52 3521.93 3751.43 3467.47 3701.32 3413.28 3642.39 3467.47" fill="#fff"/>
  <polygon id="_127" data-name="127" points="3810.63 3413.53 3860.76 3467.99 3919.66 3413.53 3869.55 3359.33 3810.63 3413.53" fill="#fff"/>
  <polygon id="_128" data-name="128" points="3751.47 3467.86 3801.6 3522.31 3860.51 3467.86 3810.4 3413.66 3751.47 3467.86" fill="#fff"/>
  <polygon id="_124" data-name="124" points="4007.99 3391.6 4058.12 3446.05 4117.02 3391.6 4066.91 3337.4 4007.99 3391.6" fill="#fff"/>
  <polygon id="_123" data-name="123" points="3948.83 3445.92 3998.96 3500.38 4057.86 3445.92 4007.75 3391.73 3948.83 3445.92" fill="#fff"/>
  <polygon id="_120" data-name="120" points="4058.29 3446.14 4108.42 3500.6 4167.32 3446.14 4117.21 3391.95 4058.29 3446.14" fill="#fff"/>
  <polygon id="_121" data-name="121" points="3999.13 3500.47 4049.26 3554.92 4108.17 3500.47 4058.05 3446.27 3999.13 3500.47" fill="#fff"/>
  <polygon id="_134" data-name="134" points="3877.58 3250.25 3927.71 3304.71 3986.62 3250.25 3936.51 3196.05 3877.58 3250.25" fill="#fff"/>
  <polygon id="_135" data-name="135" points="3797.57 3163.85 3847.71 3218.3 3906.61 3163.85 3856.5 3109.65 3797.57 3163.85" fill="#fff"/>
  <polygon id="_149" data-name="149" points="3747.26 3109.43 3797.39 3163.88 3856.3 3109.43 3806.19 3055.23 3747.26 3109.43" fill="#fff"/>
  <polygon id="_150" data-name="150" points="3667.29 3022.83 3717.42 3077.29 3776.33 3022.83 3726.22 2968.64 3667.29 3022.83" fill="#fff"/>
  <polygon id="_203" data-name="203" points="3114.38 3432.06 3164.51 3486.51 3223.41 3432.06 3173.3 3377.86 3114.38 3432.06" fill="#fff"/>
  <polygon id="_210" data-name="210" points="2973.93 3280.19 3024.07 3334.65 3082.97 3280.19 3032.86 3226 2973.93 3280.19" fill="#fff"/>
  <polygon id="_209" data-name="209" points="2914.78 3334.52 2964.91 3388.97 3023.81 3334.52 2973.7 3280.32 2914.78 3334.52" fill="#fff"/>
  <polygon id="_208" data-name="208" points="2856.65 3389.19 2906.76 3443.38 2965.31 3389.45 2914.96 3334.93 2856.65 3389.19" fill="#fff"/>
  <polygon id="_204" data-name="204" points="3024.59 3335.12 3074.81 3390.42 3133.8 3335.12 3083.61 3280.08 3024.59 3335.12" fill="#fff"/>
  <polygon id="_205" data-name="205" points="2965.62 3389.36 3015.53 3443.38 3074.17 3389.36 3024.28 3335.6 2965.62 3389.36" fill="#fff"/>
  <polygon id="_206" data-name="206" points="2907.48 3443.42 2957.37 3497.61 3015.65 3443.68 2965.52 3389.15 2907.48 3443.42" fill="#fff"/>
  <polygon id="_223" data-name="223" points="2834.26 3129.16 2884.37 3183.35 2942.92 3129.43 2892.57 3074.9 2834.26 3129.16" fill="#fff"/>
  <polygon id="_222" data-name="222" points="2775.34 3183.35 2825.47 3237.81 2884.37 3183.35 2834.26 3129.16 2775.34 3183.35" fill="#fff"/>
  <polygon id="_221" data-name="221" points="2716.18 3237.68 2766.31 3292.14 2825.22 3237.68 2775.11 3183.48 2716.18 3237.68" fill="#fff"/>
  <polygon id="_220" data-name="220" points="2658.15 3291.75 2708.26 3345.94 2766.81 3292.01 2716.45 3237.49 2658.15 3291.75" fill="#fff"/>
  <polygon id="_219" data-name="219" points="2599.22 3345.94 2649.35 3400.4 2708.26 3345.94 2658.15 3291.75 2599.22 3345.94" fill="#fff"/>
  <polygon id="_218" data-name="218" points="2540.07 3400.27 2590.2 3454.73 2649.1 3400.27 2598.99 3346.07 2540.07 3400.27" fill="#fff"/>
  <polygon id="_211" data-name="211" points="2884.57 3183.48 2934.68 3237.68 2993.23 3183.75 2942.87 3129.22 2884.57 3183.48" fill="#fff"/>
  <polygon id="_212" data-name="212" points="2825.64 3237.68 2875.77 3292.14 2934.68 3237.68 2884.57 3183.48 2825.64 3237.68" fill="#fff"/>
  <polygon id="_213" data-name="213" points="2766.49 3292.01 2816.62 3346.46 2875.52 3292.01 2825.41 3237.81 2766.49 3292.01" fill="#fff"/>
  <polygon id="_214" data-name="214" points="2708.45 3346.07 2758.56 3400.27 2817.12 3346.34 2766.76 3291.81 2708.45 3346.07" fill="#fff"/>
  <polygon id="_215" data-name="215" points="2649.53 3400.27 2699.66 3454.73 2758.56 3400.27 2708.45 3346.07 2649.53 3400.27" fill="#fff"/>
  <polygon id="_216" data-name="216" points="2590.37 3454.6 2640.5 3509.05 2699.41 3454.6 2649.3 3400.4 2590.37 3454.6" fill="#fff"/>
  <polygon id="_239" data-name="239" points="2694.19 2977.18 2744.3 3031.37 2802.85 2977.44 2752.49 2922.92 2694.19 2977.18" fill="#fff"/>
  <polygon id="_238" data-name="238" points="2635.26 3031.37 2685.39 3085.83 2744.3 3031.37 2694.19 2977.18 2635.26 3031.37" fill="#fff"/>
  <polygon id="_237" data-name="237" points="2576.11 3085.7 2626.24 3140.15 2685.14 3085.7 2635.03 3031.5 2576.11 3085.7" fill="#fff"/>
  <polygon id="_236" data-name="236" points="2518.07 3139.77 2568.18 3193.96 2626.74 3140.03 2576.38 3085.51 2518.07 3139.77" fill="#fff"/>
  <polygon id="_235" data-name="235" points="2459.15 3193.96 2509.28 3248.42 2568.18 3193.96 2518.07 3139.77 2459.15 3193.96" fill="#fff"/>
  <polygon id="_234" data-name="234" points="2399.99 3248.29 2450.12 3302.74 2509.03 3248.29 2458.92 3194.09 2399.99 3248.29" fill="#fff"/>
  <polygon id="_224" data-name="224" points="2744.49 3031.5 2794.6 3085.7 2853.16 3031.77 2802.8 2977.24 2744.49 3031.5" fill="#fff"/>
  <polygon id="_225" data-name="225" points="2685.57 3085.7 2735.7 3140.15 2794.6 3085.7 2744.49 3031.5 2685.57 3085.7" fill="#fff"/>
  <polygon id="_226" data-name="226" points="2626.41 3140.02 2676.55 3194.48 2735.45 3140.02 2685.34 3085.83 2626.41 3140.02" fill="#fff"/>
  <polygon id="_227" data-name="227" points="2568.38 3194.09 2618.49 3248.29 2677.04 3194.36 2626.69 3139.83 2568.38 3194.09" fill="#fff"/>
  <polygon id="_228" data-name="228" points="2509.45 3248.29 2559.58 3302.74 2618.49 3248.29 2568.38 3194.09 2509.45 3248.29" fill="#fff"/>
  <polygon id="_229" data-name="229" points="2450.3 3302.61 2500.43 3357.07 2559.33 3302.61 2509.22 3248.42 2450.3 3302.61" fill="#fff"/>
  <polygon id="_233" data-name="233" points="2341.18 3302.83 2391.31 3357.28 2450.21 3302.83 2400.1 3248.63 2341.18 3302.83" fill="#fff"/>
  <polygon id="_232" data-name="232" points="2282.03 3357.16 2332.16 3411.61 2391.06 3357.16 2340.95 3302.96 2282.03 3357.16" fill="#fff"/>
  <polygon id="_230" data-name="230" points="2391.49 3357.16 2441.62 3411.61 2500.52 3357.16 2450.41 3302.96 2391.49 3357.16" fill="#fff"/>
  <polygon id="_231" data-name="231" points="2332.33 3411.48 2382.46 3465.94 2441.37 3411.48 2391.26 3357.28 2332.33 3411.48" fill="#fff"/>
  <polygon id="_277" data-name="277" points="2191.15 3440.95 2241.28 3495.4 2300.18 3440.95 2250.07 3386.75 2191.15 3440.95" fill="#fff"/>
  <polygon id="_255" data-name="255" points="2563.92 2836.13 2614.03 2890.33 2672.58 2836.4 2622.23 2781.87 2563.92 2836.13" fill="#fff"/>
  <polygon id="_254" data-name="254" points="2505 2890.33 2555.13 2944.78 2614.03 2890.33 2563.92 2836.13 2505 2890.33" fill="#fff"/>
  <polygon id="_253" data-name="253" points="2445.84 2944.65 2495.97 2999.11 2554.88 2944.65 2504.77 2890.46 2445.84 2944.65" fill="#fff"/>
  <polygon id="_252" data-name="252" points="2387.81 2998.72 2437.92 3052.92 2496.47 2998.99 2446.11 2944.46 2387.81 2998.72" fill="#fff"/>
  <polygon id="_251" data-name="251" points="2328.88 3052.92 2379.01 3107.37 2437.92 3052.92 2387.81 2998.72 2328.88 3052.92" fill="#fff"/>
  <polygon id="_250" data-name="250" points="2269.73 3107.24 2319.86 3161.7 2378.76 3107.24 2328.65 3053.05 2269.73 3107.24" fill="#fff"/>
  <polygon id="_240" data-name="240" points="2614.23 2890.46 2664.34 2944.65 2722.89 2890.72 2672.53 2836.19 2614.23 2890.46" fill="#fff"/>
  <polygon id="_241" data-name="241" points="2555.3 2944.65 2605.43 2999.11 2664.34 2944.65 2614.23 2890.46 2555.3 2944.65" fill="#fff"/>
  <polygon id="_242" data-name="242" points="2496.15 2998.98 2546.28 3053.43 2605.18 2998.98 2555.07 2944.78 2496.15 2998.98" fill="#fff"/>
  <polygon id="_243" data-name="243" points="2438.11 3053.05 2488.22 3107.24 2546.78 3053.31 2496.42 2998.78 2438.11 3053.05" fill="#fff"/>
  <polygon id="_244" data-name="244" points="2379.19 3107.24 2429.32 3161.7 2488.22 3107.24 2438.11 3053.05 2379.19 3107.24" fill="#fff"/>
  <polygon id="_245" data-name="245" points="2320.03 3161.57 2370.16 3216.02 2429.07 3161.57 2378.96 3107.37 2320.03 3161.57" fill="#fff"/>
  <polygon id="_249" data-name="249" points="2210.92 3161.78 2261.05 3216.24 2319.95 3161.78 2269.84 3107.59 2210.92 3161.78" fill="#fff"/>
  <polygon id="_248" data-name="248" points="2151.76 3216.11 2201.89 3270.56 2260.79 3216.11 2210.68 3161.91 2151.76 3216.11" fill="#fff"/>
  <polygon id="_246" data-name="246" points="2261.22 3216.11 2311.35 3270.56 2370.26 3216.11 2320.15 3161.91 2261.22 3216.11" fill="#fff"/>
  <polygon id="_247" data-name="247" points="2202.07 3270.43 2252.2 3324.89 2311.1 3270.43 2260.99 3216.24 2202.07 3270.43" fill="#fff"/>
  <polygon id="_257" data-name="257" points="2366.02 2857.99 2416.15 2912.45 2475.05 2857.99 2424.94 2803.8 2366.02 2857.99" fill="#fff"/>
  <polygon id="_258" data-name="258" points="2307.98 2912.06 2358.09 2966.26 2416.64 2912.33 2366.29 2857.8 2307.98 2912.06" fill="#fff"/>
  <polygon id="_259" data-name="259" points="2249.05 2966.26 2299.19 3020.71 2358.09 2966.26 2307.98 2912.06 2249.05 2966.26" fill="#fff"/>
  <polygon id="_260" data-name="260" points="2189.9 3020.58 2240.03 3075.04 2298.93 3020.58 2248.82 2966.39 2189.9 3020.58" fill="#fff"/>
  <polygon id="_261" data-name="261" points="2131.09 3075.13 2181.22 3129.58 2240.12 3075.13 2190.01 3020.93 2131.09 3075.13" fill="#fff"/>
  <polygon id="_262" data-name="262" points="2071.93 3129.45 2122.06 3183.91 2180.97 3129.45 2130.86 3075.25 2071.93 3129.45" fill="#fff"/>
  <polygon id="_266" data-name="266" points="2198.72 2911.79 2248.85 2966.24 2307.76 2911.79 2257.65 2857.59 2198.72 2911.79" fill="#fff"/>
  <polygon id="_265" data-name="265" points="2139.57 2966.11 2189.7 3020.57 2248.6 2966.11 2198.49 2911.92 2139.57 2966.11" fill="#fff"/>
  <polygon id="_264" data-name="264" points="2080.76 3020.65 2130.89 3075.11 2189.79 3020.65 2139.68 2966.46 2080.76 3020.65" fill="#fff"/>
  <polygon id="_263" data-name="263" points="2021.6 3074.98 2071.73 3129.43 2130.64 3074.98 2080.53 3020.78 2021.6 3074.98" fill="#fff"/>
  <polygon id="_269" data-name="269" points="2059.58 2879.51 2109.71 2933.97 2168.61 2879.51 2118.5 2825.32 2059.58 2879.51" fill="#fff"/>
  <polygon id="_270" data-name="270" points="2000.77 2934.05 2050.9 2988.51 2109.8 2934.05 2059.69 2879.86 2000.77 2934.05" fill="#fff"/>
  <polygon id="_271" data-name="271" points="1941.61 2988.38 1991.74 3042.83 2050.64 2988.38 2000.53 2934.18 1941.61 2988.38" fill="#fff"/>
  <polygon id="_273" data-name="273" points="1950.46 2879.55 2000.59 2934 2059.5 2879.55 2009.38 2825.35 1950.46 2879.55" fill="#fff"/>
  <polygon id="_272" data-name="272" points="1891.31 2933.87 1941.44 2988.33 2000.34 2933.87 1950.23 2879.68 1891.31 2933.87" fill="#fff"/>
  <polygon id="_275" data-name="275" points="1811.48 2847.08 1861.61 2901.54 1920.51 2847.08 1870.4 2792.89 1811.48 2847.08" fill="#fff"/>
  <polygon id="_280" data-name="280" points="2061.26 3300 2111.39 3354.46 2170.29 3300 2120.18 3245.8 2061.26 3300" fill="#fff"/>
  <polygon id="_281" data-name="281" points="2002.1 3354.33 2052.23 3408.78 2111.14 3354.33 2061.02 3300.13 2002.1 3354.33" fill="#fff"/>
  <polygon id="_279" data-name="279" points="2111.56 3354.33 2161.69 3408.78 2220.6 3354.33 2170.49 3300.13 2111.56 3354.33" fill="#fff"/>
  <polygon id="_278" data-name="278" points="2052.41 3408.65 2102.54 3463.11 2161.44 3408.65 2111.33 3354.46 2052.41 3408.65" fill="#fff"/>
  <polygon id="_288" data-name="288" points="1931.49 3158.75 1981.6 3212.94 2040.16 3159.01 1989.8 3104.49 1931.49 3158.75" fill="#fff"/>
  <polygon id="_289" data-name="289" points="1872.57 3212.94 1922.7 3267.4 1981.6 3212.94 1931.49 3158.75 1872.57 3212.94" fill="#fff"/>
  <polygon id="_290" data-name="290" points="1813.41 3267.27 1863.54 3321.72 1922.45 3267.27 1872.34 3213.07 1813.41 3267.27" fill="#fff"/>
  <polygon id="_287" data-name="287" points="1981.8 3213.07 2031.91 3267.27 2090.46 3213.34 2040.11 3158.81 1981.8 3213.07" fill="#fff"/>
  <polygon id="_286" data-name="286" points="1922.87 3267.27 1973 3321.72 2031.91 3267.27 1981.8 3213.07 1922.87 3267.27" fill="#fff"/>
  <polygon id="_285" data-name="285" points="1863.72 3321.59 1913.85 3376.05 1972.75 3321.59 1922.64 3267.4 1863.72 3321.59" fill="#fff"/>
  <polygon id="_291" data-name="291" points="1754.6 3321.81 1804.73 3376.26 1863.64 3321.81 1813.52 3267.61 1754.6 3321.81" fill="#fff"/>
  <polygon id="_292" data-name="292" points="1695.45 3376.13 1745.58 3430.59 1804.48 3376.13 1754.37 3321.94 1695.45 3376.13" fill="#fff"/>
  <polygon id="_284" data-name="284" points="1804.91 3376.13 1855.04 3430.59 1913.94 3376.13 1863.83 3321.94 1804.91 3376.13" fill="#fff"/>
  <polygon id="_283" data-name="283" points="1745.75 3430.46 1795.88 3484.91 1854.79 3430.46 1804.68 3376.26 1745.75 3430.46" fill="#fff"/>
  <polygon id="_301" data-name="301" points="1800.74 3017.57 1850.87 3072.03 1909.78 3017.57 1859.67 2963.38 1800.74 3017.57" fill="#fff"/>
  <polygon id="_302" data-name="302" points="1741.59 3071.9 1791.72 3126.35 1850.62 3071.9 1800.51 3017.7 1741.59 3071.9" fill="#fff"/>
  <polygon id="_303" data-name="303" points="1683.55 3125.97 1733.66 3180.16 1792.21 3126.23 1741.86 3071.71 1683.55 3125.97" fill="#fff"/>
  <polygon id="_304" data-name="304" points="1624.63 3180.16 1674.76 3234.62 1733.66 3180.16 1683.55 3125.97 1624.63 3180.16" fill="#fff"/>
  <polygon id="_305" data-name="305" points="1565.47 3234.49 1615.6 3288.94 1674.51 3234.49 1624.4 3180.29 1565.47 3234.49" fill="#fff"/>
  <polygon id="_300" data-name="300" points="1851.05 3071.9 1901.18 3126.35 1960.08 3071.9 1909.97 3017.7 1851.05 3071.9" fill="#fff"/>
  <polygon id="_299" data-name="299" points="1791.89 3126.23 1842.02 3180.68 1900.93 3126.23 1850.82 3072.03 1791.89 3126.23" fill="#fff"/>
  <polygon id="_298" data-name="298" points="1733.86 3180.29 1783.97 3234.49 1842.52 3180.56 1792.16 3126.03 1733.86 3180.29" fill="#fff"/>
  <polygon id="_297" data-name="297" points="1674.93 3234.49 1725.06 3288.94 1783.97 3234.49 1733.86 3180.29 1674.93 3234.49" fill="#fff"/>
  <polygon id="_296" data-name="296" points="1615.78 3288.81 1665.91 3343.27 1724.81 3288.81 1674.7 3234.62 1615.78 3288.81" fill="#fff"/>
  <polygon id="_306" data-name="306" points="1506.66 3289.03 1556.79 3343.49 1615.69 3289.03 1565.58 3234.84 1506.66 3289.03" fill="#fff"/>
  <polygon id="_307" data-name="307" points="1447.51 3343.36 1497.64 3397.81 1556.54 3343.36 1506.43 3289.16 1447.51 3343.36" fill="#fff"/>
  <polygon id="_295" data-name="295" points="1556.97 3343.36 1607.1 3397.81 1666 3343.36 1615.89 3289.16 1556.97 3343.36" fill="#fff"/>
  <polygon id="_294" data-name="294" points="1497.81 3397.68 1547.94 3452.14 1606.85 3397.68 1556.73 3343.49 1497.81 3397.68" fill="#fff"/>
  <polygon id="_315" data-name="315" points="1670.74 2876.65 1720.87 2931.11 1779.77 2876.65 1729.66 2822.46 1670.74 2876.65" fill="#fff"/>
  <polygon id="_316" data-name="316" points="1611.59 2930.98 1661.72 2985.43 1720.62 2930.98 1670.51 2876.78 1611.59 2930.98" fill="#fff"/>
  <polygon id="_317" data-name="317" points="1553.55 2985.05 1603.66 3039.24 1662.21 2985.31 1611.86 2930.79 1553.55 2985.05" fill="#fff"/>
  <polygon id="_318" data-name="318" points="1494.63 3039.24 1544.76 3093.7 1603.66 3039.24 1553.55 2985.05 1494.63 3039.24" fill="#fff"/>
  <polygon id="_319" data-name="319" points="1435.47 3093.57 1485.6 3148.02 1544.5 3093.57 1494.39 3039.37 1435.47 3093.57" fill="#fff"/>
  <polygon id="_314" data-name="314" points="1721.05 2930.98 1771.18 2985.43 1830.08 2930.98 1779.97 2876.78 1721.05 2930.98" fill="#fff"/>
  <polygon id="_313" data-name="313" points="1661.89 2985.3 1712.02 3039.76 1770.93 2985.3 1720.81 2931.11 1661.89 2985.3" fill="#fff"/>
  <polygon id="_312" data-name="312" points="1603.85 3039.37 1653.97 3093.57 1712.52 3039.64 1662.16 2985.11 1603.85 3039.37" fill="#fff"/>
  <polygon id="_311" data-name="311" points="1544.93 3093.57 1595.06 3148.02 1653.97 3093.57 1603.85 3039.37 1544.93 3093.57" fill="#fff"/>
  <polygon id="_310" data-name="310" points="1485.78 3147.89 1535.91 3202.35 1594.81 3147.89 1544.7 3093.7 1485.78 3147.89" fill="#fff"/>
  <polygon id="_320" data-name="320" points="1376.66 3148.11 1426.79 3202.56 1485.69 3148.11 1435.58 3093.91 1376.66 3148.11" fill="#fff"/>
  <polygon id="_321" data-name="321" points="1317.5 3202.43 1367.63 3256.89 1426.54 3202.43 1376.43 3148.24 1317.5 3202.43" fill="#fff"/>
  <polygon id="_309" data-name="309" points="1426.96 3202.43 1477.1 3256.89 1536 3202.43 1485.89 3148.24 1426.96 3202.43" fill="#fff"/>
  <polygon id="_308" data-name="308" points="1367.81 3256.76 1417.94 3311.21 1476.84 3256.76 1426.73 3202.56 1367.81 3256.76" fill="#fff"/>
  <polygon id="_326" data-name="326" points="1472.83 2898.77 1522.94 2952.97 1581.5 2899.04 1531.14 2844.51 1472.83 2898.77" fill="#fff"/>
  <polygon id="_323" data-name="323" points="1296.2 3061.85 1346.31 3116.05 1404.86 3062.12 1354.51 3007.59 1296.2 3061.85" fill="#fff"/>
  <polygon id="_322" data-name="322" points="1237.41 3115.94 1287.52 3170.13 1346.07 3116.2 1295.72 3061.68 1237.41 3115.94" fill="#fff"/>
  <polygon id="_330" data-name="330" points="1363.48 2898.41 1413.59 2952.6 1472.15 2898.67 1421.79 2844.14 1363.48 2898.41" fill="#fff"/>
</svg>